<svg width="332" height="741" viewBox="0 0 332 741" fill="none" xmlns="http://www.w3.org/2000/svg">
<path fill-rule="evenodd" clip-rule="evenodd" d="M137.89 112.248C171.122 103.212 189.112 -6.57704 222.403 1.41577C250.76 8.22395 273.224 84.0325 273.534 144.814C273.907 217.696 212.699 264.595 224.1 333.316C237.663 415.067 309.094 389.329 327.016 467.178C340.134 524.16 318.592 603.031 295.312 642.638C271.291 683.505 235.059 656.475 205.44 674.013C181.527 688.172 159.791 760.721 137.89 735.851C109.551 703.672 125.153 588.256 97.9375 551.943C75.0991 521.469 42.4678 605.381 18.989 577.202C-0.417045 553.912 -2.23239 485.114 4.66501 440C12.0877 391.45 54.6702 386.383 55.9582 335.397C57.6469 268.549 10.0584 227.754 11.7157 160.902C13.0504 107.062 38.2576 54.3159 63.1645 44.7114C90.1275 34.3141 110.709 119.638 137.89 112.248Z" stroke="#287AF3"/>
</svg>
