<svg width="1440" height="816" viewBox="0 0 1440 816" fill="none" xmlns="http://www.w3.org/2000/svg">
<path fill-rule="evenodd" clip-rule="evenodd" d="M658.112 -82.8821C758.449 -106.979 819.802 16.1183 925.235 28.4225C1061.16 44.2855 1291.04 -88.3244 1333.06 -4.11477C1393.27 116.545 980.346 225.642 1078.54 335.624C1183.99 453.73 1587.92 292.48 1700.79 407.746C1784.63 493.375 1446.62 524.075 1329.33 591.741C1266.31 628.099 1213.68 670.097 1167.25 715.541C1117.58 764.151 1131.65 887.669 1045.34 869.672C878.528 834.885 842.132 551.223 701.613 618.439C468.577 729.91 650.576 1009.73 459.296 1150C367.823 1217.08 179.713 1132.3 55.325 1092.4C-72.0499 1051.54 -316.432 1002.48 -267.653 916.826C-164.323 735.388 304.273 706.644 381.346 519.939C421.68 422.23 4.34923 517.372 -65.3161 426.672C-115.237 361.678 134.539 362.054 240.454 336.507C300.994 321.904 390.047 341.492 427.591 307.781C478.982 261.636 427.537 193.444 458.816 140.435C506.543 59.5531 531.599 -52.4994 658.112 -82.8821Z" stroke="#287AF3"/>
</svg>
